<svg xmlns="http://www.w3.org/2000/svg" viewBox="0 0 64 64" role="img" aria-label="Session Index Viewer favicon">
  <defs>
    <linearGradient id="bg" x1="8" y1="6" x2="56" y2="58" gradientUnits="userSpaceOnUse">
      <stop offset="0" stop-color="#fff4df" />
      <stop offset="1" stop-color="#ead9bf" />
    </linearGradient>
    <linearGradient id="cardTop" x1="18" y1="17" x2="49" y2="39" gradientUnits="userSpaceOnUse">
      <stop offset="0" stop-color="#fffdf8" />
      <stop offset="1" stop-color="#f5ebdc" />
    </linearGradient>
    <linearGradient id="cardBottom" x1="15" y1="27" x2="46" y2="52" gradientUnits="userSpaceOnUse">
      <stop offset="0" stop-color="#fff9f0" />
      <stop offset="1" stop-color="#efe1cc" />
    </linearGradient>
  </defs>
  <rect x="4" y="4" width="56" height="56" rx="16" fill="url(#bg)" />
  <path d="M15 12c6-6 22-7 34-2 3 1 5 3 7 5v-1c0-5-4-10-10-10H18C12 4 8 8 8 14v8c1-4 3-7 7-10Z" fill="#fffaf1" opacity=".82" />
  <rect x="13" y="24" width="31" height="19" rx="6" fill="url(#cardBottom)" stroke="rgba(86,66,49,.16)" />
  <rect x="13" y="24" width="4" height="19" rx="2" fill="#b3532f" />
  <rect x="20" y="30" width="15" height="2.6" rx="1.3" fill="#b8a894" />
  <rect x="20" y="35" width="11" height="2.6" rx="1.3" fill="#cfbfaa" />
  <rect x="20" y="16" width="31" height="19" rx="6" fill="url(#cardTop)" stroke="rgba(86,66,49,.18)" />
  <rect x="20" y="16" width="4" height="19" rx="2" fill="#0d6b59" />
  <rect x="27" y="22" width="16" height="2.6" rx="1.3" fill="#9f8e78" />
  <rect x="27" y="27" width="12" height="2.6" rx="1.3" fill="#c0af97" />
  <circle cx="47" cy="45" r="8" fill="#f1c46a" stroke="#8e6424" stroke-width="2" />
  <path d="M52.5 50.5 57 55" stroke="#8e6424" stroke-width="3" stroke-linecap="round" />
  <circle cx="47" cy="45" r="3.2" fill="none" stroke="#8e6424" stroke-width="2" />
</svg>
